HIERARCHY
ROOT Hips
{
	OFFSET 0.000000 0.000000 0.000000
	CHANNELS 6 Xposition Yposition Zposition Zrotation Yrotation Xrotation 
	JOINT LHipJoint
	{
		OFFSET 0.000000 0.000000 0.000000
		CHANNELS 3 Zrotation Yrotation Xrotation
		JOINT LeftUpLeg
		{
			OFFSET 1.363060 -1.794630 0.839290
			CHANNELS 3 Zrotation Yrotation Xrotation
			JOINT LeftLeg
			{
				OFFSET 2.448110 -6.726130 0.000000
				CHANNELS 3 Zrotation Yrotation Xrotation
				JOINT LeftFoot
				{
					OFFSET 2.562200 -7.039590 0.000000
					CHANNELS 3 Zrotation Yrotation Xrotation
					JOINT LeftToeBase
					{
						OFFSET 0.157640 -0.433110 2.322550
						CHANNELS 3 Zrotation Yrotation Xrotation
						End Site
						{
							OFFSET 0.000000 0.000000 0.000000
						}
					}
				}
			}
		}
	}
	JOINT RHipJoint
	{
		OFFSET 0.000000 0.000000 0.000000
		CHANNELS 3 Zrotation Yrotation Xrotation
		JOINT RightUpLeg
		{
			OFFSET -1.305520 -1.794630 0.839290
			CHANNELS 3 Zrotation Yrotation Xrotation
			JOINT RightLeg
			{
				OFFSET -2.542530 -6.985550 0.000000
				CHANNELS 3 Zrotation Yrotation Xrotation
				JOINT RightFoot
				{
					OFFSET -2.568260 -7.056230 0.000000
					CHANNELS 3 Zrotation Yrotation Xrotation
					JOINT RightToeBase
					{
						OFFSET -0.164730 -0.452590 2.363150
						CHANNELS 3 Zrotation Yrotation Xrotation
						End Site
						{
							OFFSET 0.000000 0.000000 0.000000
						}
					}
				}
			}
		}
	}
	JOINT LowerBack
	{
		OFFSET 0.000000 0.000000 0.000000
		CHANNELS 3 Zrotation Yrotation Xrotation
		JOINT Spine
		{
			OFFSET 0.028270 2.035590 -0.193380
			CHANNELS 3 Zrotation Yrotation Xrotation
			JOINT Spine1
			{
				OFFSET 0.056720 2.048850 -0.042750
				CHANNELS 3 Zrotation Yrotation Xrotation
				JOINT Neck
				{
					OFFSET 0.000000 0.000000 0.000000
					CHANNELS 3 Zrotation Yrotation Xrotation
					JOINT Neck1
					{
						OFFSET -0.054170 1.746240 0.172020
						CHANNELS 3 Zrotation Yrotation Xrotation
						JOINT Head
						{
							OFFSET 0.104070 1.761360 -0.123970
							CHANNELS 3 Zrotation Yrotation Xrotation
							End Site
							{
								OFFSET 0.000000 0.000000 0.000000
							}
						}
					}
				}
				JOINT LeftShoulder
				{
					OFFSET 0.000000 0.000000 0.000000
					CHANNELS 3 Zrotation Yrotation Xrotation
					JOINT LeftArm
					{
						OFFSET 3.362410 1.200890 -0.311210
						CHANNELS 3 Zrotation Yrotation Xrotation
						JOINT LeftForeArm
						{
							OFFSET 4.983000 -0.000000 -0.000000
							CHANNELS 3 Zrotation Yrotation Xrotation
							JOINT LeftHand
							{
								OFFSET 3.483560 -0.000000 -0.000000
								CHANNELS 3 Zrotation Yrotation Xrotation
								JOINT LeftFingerBase
								{
									OFFSET 0.000000 0.000000 0.000000
									CHANNELS 3 Zrotation Yrotation Xrotation
									JOINT LeftHandIndex1
									{
										OFFSET 0.715260 -0.000000 -0.000000
										CHANNELS 3 Zrotation Yrotation Xrotation
										End Site
										{
											OFFSET 0.000000 0.000000 0.000000
										}
									}
								}
								JOINT LThumb
								{
									OFFSET 0.000000 0.000000 0.000000
									CHANNELS 3 Zrotation Yrotation Xrotation
									End Site
									{
										OFFSET 0.000000 0.000000 0.000000
									}
								}
							}
						}
					}
				}
				JOINT RightShoulder
				{
					OFFSET 0.000000 0.000000 0.000000
					CHANNELS 3 Zrotation Yrotation Xrotation
					JOINT RightArm
					{
						OFFSET -3.136600 1.374050 -0.404650
						CHANNELS 3 Zrotation Yrotation Xrotation
						JOINT RightForeArm
						{
							OFFSET -5.241900 -0.000000 -0.000000
							CHANNELS 3 Zrotation Yrotation Xrotation
							JOINT RightHand
							{
								OFFSET -3.444170 -0.000000 -0.000000
								CHANNELS 3 Zrotation Yrotation Xrotation
								JOINT RightFingerBase
								{
									OFFSET 0.000000 0.000000 0.000000
									CHANNELS 3 Zrotation Yrotation Xrotation
									JOINT RightHandIndex1
									{
										OFFSET -0.622530 -0.000000 -0.000000
										CHANNELS 3 Zrotation Yrotation Xrotation
										End Site
										{
											OFFSET 0.000000 0.000000 0.000000
										}
									}
								}
								JOINT RThumb
								{
									OFFSET 0.000000 0.000000 0.000000
									CHANNELS 3 Zrotation Yrotation Xrotation
									End Site
									{
										OFFSET 0.000000 0.000000 0.000000
									}
								}
							}
						}
					}
				}
			}
		}
	}
}
MOTION
Frames: 8
Frame Time: 0.008333
55.133683 17.045079 -29.324252 -6.192176 -59.009569 2.895184 0.346920 -0.871180 -0.416847 -16.578847 11.575688 -6.824372 0.189028 8.386417 22.300499 -0.596479 4.946824 -5.972620 0.000000 0.003500 0.009600 -2.016824 0.912481 -1.137358 22.826344 4.611150 -6.709636 -1.285381 -11.752715 32.000108 1.756045 -8.866286 -9.898692 -0.003100 0.359800 -0.988600 1.447846 -1.746522 1.334762 1.234923 -2.167602 -1.210915 0.139543 -1.264390 5.215092 -3.160581 2.338504 -3.236530 2.404894 2.938662 13.537844 -2.291900 1.889500 4.415700 0.264681 -2.145396 1.525396 -63.339774 -28.658516 49.030844 135.899447 -43.967805 -102.582049 0.573168 -1.242526 -21.306417 5.748612 -0.904424 0.046600 -7.125000 0.000000 0.000000 -16.372500 30.212700 6.136200 5.139032 2.494640 -0.674782 73.078960 -4.136599 17.795921 -7.881971 21.644151 -3.053414 1.980668 0.753876 2.011527 -18.322048 -4.145141 1.827900 7.125000 0.000000 0.000000 5.319300 -35.220400 1.282300 
55.129001 17.047039 -29.332635 -6.142023 -59.145664 2.859189 0.343739 -0.869396 -0.407345 -16.607915 11.502126 -6.754821 0.182157 8.365018 22.240501 -0.668386 5.193807 -6.048576 0.000100 -0.070100 -0.192700 -2.003249 0.908484 -1.124584 22.845973 4.820941 -6.599492 -1.260744 -11.720457 31.897003 1.828185 -9.087587 -9.988828 -0.006400 0.518200 -1.424000 1.459637 -1.741315 1.419130 1.220926 -2.156556 -1.232541 0.017220 -1.251936 5.079964 -2.950264 2.345140 -3.235624 2.398021 2.933744 13.533646 -2.333300 1.894200 4.450400 0.211818 -2.166523 1.471479 -62.618364 -27.364553 49.103580 134.900272 -44.829780 -101.757867 0.591989 -1.287960 -20.535170 5.284946 -0.466679 0.086600 -7.125000 0.000000 0.000000 -16.825400 30.666400 6.128300 5.131619 2.517965 -0.683607 73.214934 -4.179252 17.905137 -8.005015 21.791959 -3.100176 1.983190 0.738119 1.811266 -18.455746 -4.021871 1.787800 7.125000 0.000000 0.000000 5.190000 -35.072600 1.269700 
55.124320 17.050414 -29.339494 -6.112119 -59.274617 2.865631 0.338014 -0.870328 -0.401539 -16.628977 11.395455 -6.685635 0.171320 8.341571 22.172734 -0.712788 5.351389 -6.158599 0.000100 0.050100 0.137700 -1.995919 0.907632 -1.118994 22.866748 4.988654 -6.545157 -1.242463 -11.701802 31.828601 1.840574 -9.121622 -9.975300 -0.004700 0.443700 -1.219200 1.468054 -1.743994 1.443208 1.222014 -2.162154 -1.246379 0.009940 -1.253152 5.026275 -2.891813 2.352531 -3.305965 2.401803 2.949663 13.535740 -2.337200 1.901300 4.494200 0.167875 -2.172190 1.423732 -62.127006 -26.276618 49.267189 133.653810 -45.808373 -100.730233 0.602716 -1.318594 -19.861264 5.250746 -0.221218 0.110600 -7.125000 0.000000 0.000000 -16.912400 30.930700 6.050400 5.139973 2.531435 -0.688155 73.196489 -4.133006 18.063030 -8.131524 21.938475 -3.149335 1.978519 0.749742 1.563506 -18.448760 -4.059469 1.801900 7.125000 0.000000 0.000000 5.200900 -35.115000 1.267000 
55.121380 17.052592 -29.346136 -6.073075 -59.397154 2.852722 0.329921 -0.874658 -0.402930 -16.671297 11.200704 -6.588806 0.160335 8.321284 22.104699 -0.811521 5.694367 -6.315356 0.000000 0.029000 0.079800 -1.991507 0.907452 -1.119593 22.857672 5.045372 -6.528666 -1.228225 -11.683286 31.765151 1.861171 -9.172634 -9.916477 -0.004900 0.450300 -1.237300 1.466254 -1.764681 1.441381 1.229997 -2.193959 -1.244837 0.040306 -1.269152 5.055792 -2.871495 2.372823 -3.397936 2.387614 2.993654 13.511819 -2.348400 1.919600 4.512600 0.122633 -2.158203 1.383179 -61.717131 -25.181935 49.495889 132.173714 -46.900483 -99.493006 0.602080 -1.346172 -19.673459 5.535539 0.220746 0.161300 -7.125000 0.000000 0.000000 -16.771900 31.389900 5.802500 5.160549 2.529169 -0.685447 73.118174 -4.066658 18.316982 -8.290149 22.130956 -3.211773 1.966074 0.769784 1.346022 -18.365962 -4.131965 1.824100 7.125000 0.000000 0.000000 5.285500 -35.200500 1.276700 
55.118440 17.054987 -29.352560 -6.057492 -59.523975 2.862264 0.324027 -0.877851 -0.401081 -16.698928 11.042777 -6.507802 0.151402 8.302297 22.045561 -0.893172 5.978081 -6.457009 0.000000 0.038200 0.104800 -1.985412 0.906861 -1.116908 22.862222 5.123608 -6.512346 -1.214400 -11.667411 31.707206 1.878313 -9.213754 -9.855993 -0.004600 0.438000 -1.203400 1.493065 -1.764247 1.458561 1.230920 -2.196411 -1.250715 0.017245 -1.267352 5.038978 -2.791123 2.377901 -3.469974 2.380353 3.007216 13.504809 -2.365300 1.926400 4.545200 0.080150 -2.151992 1.339863 -61.283241 -24.080001 49.781653 130.669402 -47.931513 -98.236411 0.604310 -1.379201 -19.383094 5.630141 0.642902 0.208000 -7.125000 0.000000 0.000000 -16.779500 31.829500 5.619700 5.169900 2.532997 -0.688626 73.109753 -4.028047 18.497331 -8.439821 22.309513 -3.271360 1.958687 0.779920 1.111925 -18.352498 -4.151116 1.830200 7.125000 0.000000 0.000000 5.302200 -35.222100 1.278000 
55.116045 17.057382 -29.358548 -6.062591 -59.642001 2.888592 0.318063 -0.881318 -0.399552 -16.718598 10.870253 -6.424384 0.142907 8.284365 21.989633 -0.978168 6.272600 -6.605078 0.000000 0.043800 0.120400 -1.979872 0.906103 -1.114417 22.868224 5.163850 -6.514021 -1.202067 -11.653193 31.653863 1.887186 -9.227010 -9.767058 -0.004100 0.412600 -1.133600 1.536259 -1.765642 1.478232 1.234026 -2.202105 -1.256564 -0.000937 -1.267059 5.022424 -2.719338 2.383404 -3.543783 2.371030 3.022503 13.498209 -2.382100 1.933600 4.578800 0.041372 -2.143721 1.297096 -60.909928 -22.993798 50.135340 128.973288 -48.999522 -96.818149 0.602593 -1.411766 -19.205402 5.789230 1.080966 0.261000 -7.125000 0.000000 0.000000 -16.736100 32.286300 5.411300 5.179849 2.535386 -0.692329 73.088344 -3.993005 18.691749 -8.595450 22.494962 -3.333818 1.951171 0.791335 0.879965 -18.336257 -4.178199 1.839300 7.125000 0.000000 0.000000 5.322200 -35.253400 1.278800 
55.113977 17.059669 -29.364100 -6.090370 -59.750987 2.932364 0.312975 -0.884826 -0.398861 -16.727267 10.693184 -6.344130 0.136447 8.270820 21.947170 -1.060291 6.557362 -6.757410 0.000100 0.052000 0.142800 -1.974076 0.904790 -1.111506 22.881108 5.181321 -6.518072 -1.188079 -11.636404 31.593012 1.891163 -9.225098 -9.668618 -0.003700 0.391600 -1.076100 1.595077 -1.765729 1.498377 1.238324 -2.206913 -1.262104 -0.020629 -1.265799 5.006285 -2.645091 2.387599 -3.615415 2.360709 3.035398 13.493459 -2.400800 1.939900 4.613200 0.006108 -2.133727 1.254668 -60.586522 -21.926958 50.562406 127.066905 -50.092201 -95.222879 0.597550 -1.445573 -19.116445 5.968513 1.547290 0.321000 -7.125000 0.000000 0.000000 -16.678700 32.772200 5.187000 5.189504 2.536323 -0.696753 73.064381 -3.967240 18.893491 -8.758499 22.689728 -3.399827 1.943509 0.802141 0.642652 -18.324320 -4.196248 1.845300 7.125000 0.000000 0.000000 5.337700 -35.274500 1.279700 
55.112017 17.062173 -29.369217 -6.139864 -59.849704 2.994015 0.308333 -0.888038 -0.399010 -16.723846 10.516629 -6.264526 0.131010 8.259133 21.911056 -1.137414 6.824556 -6.908384 0.000100 0.069000 0.189600 -1.968672 0.903006 -1.108852 22.904535 5.189234 -6.517782 -1.172447 -11.617506 31.525993 1.889110 -9.206703 -9.576475 -0.003200 0.364400 -1.001300 1.666765 -1.765223 1.510747 1.244213 -2.211808 -1.266105 -0.039111 -1.264602 4.998187 -2.568411 2.389501 -3.682620 2.348138 3.044764 13.488414 -2.423000 1.945000 4.644500 -0.025709 -2.121219 1.213071 -60.315331 -20.894248 51.056242 124.908580 -51.205150 -93.418067 0.589759 -1.481168 -19.086585 6.145953 2.029826 0.386500 -7.125000 0.000000 0.000000 -16.623400 33.275500 4.957200 5.200156 2.534677 -0.700763 73.035030 -3.945404 19.101675 -8.927567 22.891748 -3.468925 1.935760 0.812058 0.403044 -18.317275 -4.202310 1.847100 7.125000 0.000000 0.000000 5.347900 -35.282400 1.281200 
